<?xml version="1.0" standalone="no"?><!DOCTYPE svg PUBLIC "-//W3C//DTD SVG 1.1//EN" "http://www.w3.org/Graphics/SVG/1.1/DTD/svg11.dtd"><svg t="1700242302195" class="icon" viewBox="0 0 1024 1024" version="1.1" xmlns="http://www.w3.org/2000/svg" p-id="17323" xmlns:xlink="http://www.w3.org/1999/xlink" width="200" height="200"><path d="M1006.08 460.16c-3.328-0.896-72-24.576-134.08-13.952-5.76-31.04-22.08-82.56-73.6-102.144l-5.696-2.432-5.76 1.6c-2.368 0.832-24.448 4.928-40.832 30.272-19.584 29.44-23.68 73.536-12.224 131.52H47.36c-11.52 0-42.496-0.768-44.992 25.344a237.568 237.568 0 0 0-1.6 17.984C0 552.448 0 553.28 0 564.736c0 304.832 220.672 339.968 386.56 339.968 324.48 0 442.112-174.08 483.84-322.816 35.072 6.528 123.392 11.456 149.504-98.112L1024 465.92l-17.92-5.76z m-133.248 80.832a35.584 35.584 0 0 0-41.728 26.176c-65.344 245.12-278.656 296.64-445.376 296.64-239.424 0-345.664-92.352-345.664-299.072v-8.192c0.768-2.432 0.768-4.928 1.6-11.456h702.08a29.12 29.12 0 0 0 24.448-12.224c6.528-7.36 8.192-17.984 6.528-27.84-17.152-79.232 0-112.768 14.72-121.728 42.496 22.08 43.328 85.76 43.328 87.424v28.608l26.944-9.792c36.8-13.056 85.824-4.928 112.832 1.6-19.648 55.616-64.64 58.048-99.712 49.92zM58.816 385.728h87.488v87.424H58.816V385.728z" fill="#1296db" p-id="17324"></path><path d="M186.304 385.728h87.488v87.424H186.24V385.728z m128.32 0h87.488v87.424H314.624V385.728z m127.488 0h87.488v87.424H442.112V385.728zM186.304 252.544h87.488v87.424H186.24V252.544z m128.32 0h87.488v87.424H314.624V252.544z m127.488 0h87.488v87.424H442.112V252.544z m0-133.248h87.488v87.488H442.112V119.296z m128.32 266.432h87.424v87.424H570.432V385.728zM219.84 615.36c-29.44 0-53.12 23.68-53.12 53.12 0 29.44 23.68 53.12 53.12 53.12 29.44 0 53.12-23.68 53.12-53.12 0-29.44-23.68-53.12-53.12-53.12z m0 65.408a12.544 12.544 0 0 1-12.288-12.288c0-6.528 5.76-12.224 12.288-12.224 6.528 0 12.224 5.76 12.224 12.224 0 6.528-5.696 12.288-12.224 12.288z" fill="#1296db" p-id="17325"></path></svg>