<?xml version="1.0" standalone="no"?><!DOCTYPE svg PUBLIC "-//W3C//DTD SVG 1.1//EN" "http://www.w3.org/Graphics/SVG/1.1/DTD/svg11.dtd"><svg t="1700564619529" class="icon" viewBox="0 0 1024 1024" version="1.1" xmlns="http://www.w3.org/2000/svg" p-id="23072" xmlns:xlink="http://www.w3.org/1999/xlink" width="200" height="200"><path d="M938.402909 719.592727l0.232727-86.574545s-57.111273-11.357091-58.135272-15.220364a262.656 262.656 0 0 0-3.397819-12.427636c6.656-12.334545 38.865455-39.656727 38.865455-39.656727l-64.465455-85.783273s-41.797818 34.443636-52.177454 39.330909a189.160727 189.160727 0 0 0-15.266909-5.166546c-5.585455-1.396364-21.085091-56.506182-21.085091-56.506181l-86.807273-0.744728s-9.355636 53.341091-23.365818 56.971637a93.230545 93.230545 0 0 0-14.103273 5.352727c-10.426182-5.12-52.130909-40.029091-52.130909-40.029091l-64.512 87.272727s32.302545 32.535273 34.443637 43.380364a221.137455 221.137455 0 0 0-3.816728 10.472727c-13.870545 4.840727-53.341091 12.706909-53.341091 12.706909l0.186182 86.574546s45.847273 9.541818 54.551273 17.128727c1.861818 4.980364 3.863273 9.867636 6.144 14.615273-10.565818 13.265455-38.865455 35.281455-38.865455 35.281454l66.466909 86.574546s52.177455-33.838545 60.788364-35.746909c4.282182 1.815273 8.564364 3.537455 13.032727 5.12 7.819636 2.792727 13.405091 53.154909 13.405091 53.154909l86.714182 0.325818s3.025455-49.477818 9.309091-51.479273c6.283636-1.954909 12.474182-4.235636 18.432-6.888727 7.307636 2.885818 41.518545 37.003636 41.518545 37.003636l85.643637-87.272727s-31.837091-21.969455-40.587637-33.838545a210.850909 210.850909 0 0 0 6.516364-15.080728c2.932364-7.819636 55.854545-18.850909 55.854546-18.850909z m-220.392727 65.582546a109.381818 109.381818 0 1 1 0-218.670546 109.381818 109.381818 0 0 1 0 218.670546zM439.854545 452.747636c99.421091 0 200.610909-97.745455 200.61091-201.262545 0-103.517091-96.349091-208.802909-195.723637-208.802909-99.421091 0-198.283636 107.845818-198.283636 211.316363 0 103.517091 94.021818 198.749091 193.396363 198.749091z m43.752728 43.101091H284.811636c-49.757091 0-124.276364 25.925818-149.131636 103.470546-24.762182 77.591273-24.762182 77.591273-49.757091 155.229091-12.474182 39.005091 169.658182 58.833455 350.813091 58.181818 60.043636-0.139636 19.083636-49.524364 19.083636-112.174546 0-142.615273 121.762909-204.706909 27.834182-204.706909z" fill="#3B8DFF" p-id="23073"></path></svg>